<svg width="497" height="286" viewBox="0 0 497 286" fill="none" xmlns="http://www.w3.org/2000/svg">
<path d="M0 0H497V286H0V0Z" fill="#5E78DF" fill-opacity="0.51"/>
<path d="M242.904 66.0191C242.897 63.8684 242.024 61.8012 240.463 60.2393C236.78 56.5755 229.394 50.3646 221.614 50.1295C211.269 49.7965 201.814 54.3223 198.669 61.1406C197.138 64.4517 196.6 69.2911 200.076 75.5019C197.919 74.6739 195.571 74.392 193.264 74.684C190.956 74.976 188.769 75.8318 186.917 77.1673C180.089 82.2026 178.434 93.0765 181.579 99.0718C181.931 99.738 182.303 100.443 182.696 101.168C180.071 101.285 177.529 102.076 175.342 103.457C173.155 104.837 171.406 106.755 170.282 109.005C169.005 111.141 168.213 113.506 167.956 115.949C167.7 118.391 167.985 120.858 168.793 123.19C161.117 127.383 158.448 136.631 162.71 145.839C164.179 149.093 166.739 151.799 169.993 153.539C168.357 153.947 166.865 154.758 165.669 155.89C163.191 158.387 161.326 161.371 160.206 164.629C159.087 167.887 158.741 171.339 159.193 174.738C159.958 181.713 163.537 188.003 168.524 191.137C169.383 191.652 170.353 191.978 171.363 192.089C172.373 192.201 173.397 192.097 174.358 191.784C172.511 194.731 171.926 198.237 172.724 201.58C174.358 207.634 181.414 212.67 194.283 216.96C199.124 233.438 212.449 235.671 218.035 235.848H220.104C229.539 235.515 238.187 230.832 240.297 224.641C241.477 221.134 242.201 204.931 242.594 184.006C242.612 183.856 242.612 183.705 242.594 183.555C243.38 142.019 243.008 82.3397 242.904 66.0191ZM236.077 223.308C234.877 226.815 229.559 230.401 222.752 231.381C223.807 225.189 224.49 213.257 223.332 209.456C221.925 204.813 214.104 198.445 213.214 197.701C212.994 197.525 212.74 197.391 212.465 197.308C212.19 197.225 211.901 197.194 211.614 197.217C211.327 197.239 211.047 197.316 210.791 197.441C210.535 197.566 210.307 197.737 210.121 197.946C209.935 198.154 209.794 198.395 209.706 198.655C209.619 198.915 209.586 199.189 209.61 199.461C209.634 199.733 209.714 199.998 209.846 200.24C209.978 200.483 210.16 200.699 210.38 200.875C213.338 203.246 218.325 207.967 219.111 210.554C220.104 213.845 219.235 226.698 218.263 231.596C204.09 231.126 199.642 219.664 198.317 214.766C198.229 214.427 198.052 214.115 197.802 213.858C197.553 213.601 197.239 213.408 196.89 213.297C184.993 209.378 178.269 205.146 177.048 200.463C175.6 195.075 181.414 189.061 186.545 183.751C188.159 182.066 189.69 180.499 190.993 178.951C191.358 178.519 191.527 177.969 191.463 177.419C191.399 176.87 191.107 176.367 190.652 176.022C190.196 175.676 189.615 175.516 189.034 175.577C188.454 175.637 187.923 175.914 187.559 176.345C187 177.011 186.421 177.658 185.821 178.304V178.422C180.276 184.3 173.551 189.178 171.131 187.65C167.096 185.24 164.2 179.989 163.579 174.307C163.192 171.515 163.461 168.677 164.366 165.995C165.271 163.313 166.789 160.853 168.813 158.79C170.882 156.831 174.793 156.831 180.876 156.929H183.565C184.037 156.933 184.498 156.792 184.878 156.529C185.259 156.265 185.54 155.892 185.68 155.466C185.819 155.039 185.809 154.581 185.652 154.16C185.495 153.739 185.198 153.377 184.807 153.128C183.849 152.653 182.784 152.405 181.703 152.403C177.565 151.952 169.972 151.11 166.744 144.135C163.931 138.061 164.531 130.42 170.676 126.874C172.94 130.133 176.008 132.823 179.614 134.711C179.848 134.936 180.134 135.107 180.45 135.211C180.765 135.316 181.101 135.35 181.433 135.313C181.765 135.275 182.083 135.167 182.364 134.995C182.644 134.823 182.88 134.593 183.052 134.322C183.224 134.051 183.329 133.747 183.358 133.431C183.387 133.116 183.34 132.799 183.22 132.504C183.1 132.209 182.91 131.943 182.665 131.728C182.42 131.513 182.127 131.354 181.807 131.262C170.882 125.169 170.82 116.529 174.089 110.984C176.469 106.928 181.145 103.95 185.49 106.008C191.697 116.059 200.407 127.716 206.469 130.263C205.979 130.443 205.579 130.794 205.352 131.243C204.793 132.34 199.869 142.019 199.145 145.781C199.049 146.323 199.185 146.88 199.523 147.328C199.86 147.777 200.372 148.08 200.945 148.171H201.317C201.821 148.15 202.303 147.965 202.679 147.647C203.056 147.33 203.306 146.899 203.386 146.427C204.915 141.816 206.846 137.334 209.159 133.026C209.341 132.728 209.436 132.39 209.436 132.046C209.436 131.702 209.341 131.364 209.159 131.066C213.633 132.124 218.346 131.795 222.607 130.126C223.137 129.895 223.548 129.474 223.75 128.956C223.951 128.438 223.928 127.865 223.683 127.363C223.439 126.862 222.995 126.473 222.448 126.282C221.9 126.091 221.296 126.113 220.766 126.345C216.721 127.908 212.19 127.908 208.145 126.345C202.476 123.954 191.593 109.025 185.386 97.1125C183.09 92.7434 184.579 83.9463 189.524 80.3413C195.069 76.266 202.331 80.3413 207.442 84.5145C207.87 84.8886 208.437 85.0864 209.019 85.0644C209.601 85.0424 210.15 84.8023 210.545 84.397C210.94 83.9916 211.149 83.4543 211.126 82.9032C211.103 82.352 210.849 81.8322 210.421 81.4581C202.931 74.3264 200.221 67.7433 202.58 62.6688C204.938 57.5943 212.925 53.8913 221.345 54.1656C227.842 54.3615 234.566 60.4156 237.153 63.0019C237.939 63.7989 238.376 64.8498 238.373 65.9407C238.373 79.0678 238.539 94.5263 238.559 110.514C236.362 108.477 233.76 106.872 230.904 105.792C226.962 104.236 222.758 103.36 218.49 103.206C217.908 103.206 217.351 103.425 216.939 103.814C216.528 104.204 216.297 104.732 216.297 105.283C216.297 105.833 216.528 106.362 216.939 106.751C217.351 107.141 217.908 107.359 218.49 107.359C222.918 107.359 235.766 109.828 238.084 117.783C238.159 118.032 238.285 118.265 238.456 118.468C238.456 129.499 238.456 140.628 238.332 151.345C234.773 152.285 224.801 149.758 222.69 148.641C222.186 148.436 221.62 148.418 221.102 148.589C220.585 148.76 220.154 149.109 219.894 149.566C219.634 150.024 219.565 150.556 219.7 151.06C219.834 151.563 220.163 152 220.621 152.285C225.563 154.279 230.837 155.433 236.201 155.694C236.935 155.692 237.668 155.639 238.394 155.538C238.394 164.844 238.208 173.759 238.063 181.89C233.78 182.634 222.897 183.3 217.704 180.714H217.518C212.325 178.755 206.655 168.959 204.959 164.139C204.735 163.67 204.336 163.296 203.838 163.09C203.34 162.884 202.779 162.861 202.263 163.024C201.748 163.187 201.315 163.526 201.049 163.975C200.782 164.423 200.701 164.95 200.821 165.451C202.497 170.232 208.6 181.635 215.78 184.515C220.078 186.241 224.729 187.037 229.394 186.847C232.337 186.848 235.276 186.645 238.187 186.239C237.67 205.949 237.09 220.35 236.077 223.308V223.308Z" fill="white"/>
<path d="M292.436 89.6083C291.666 89.2399 290.816 89.0454 289.953 89.0401C288.673 89.0273 287.427 89.4279 286.42 90.1759C285.413 90.9238 284.705 91.9745 284.414 93.1546C284.122 94.3346 284.264 95.5736 284.816 96.667C285.368 97.7605 286.297 98.6432 287.449 99.1695V117.567C286.282 118.116 285.351 119.03 284.814 120.155C284.277 121.28 284.168 122.546 284.504 123.738C284.84 124.931 285.602 125.976 286.66 126.698C287.717 127.419 289.006 127.772 290.307 127.697C291.608 127.621 292.841 127.122 293.798 126.283C294.754 125.445 295.375 124.319 295.555 123.096C295.735 121.874 295.463 120.63 294.785 119.576C294.107 118.522 293.065 117.722 291.836 117.312V99.4242C293.224 98.982 294.37 98.0361 295.021 96.7944C295.673 95.5526 295.778 94.1166 295.312 92.8019L306.257 83.7305C307.414 84.3056 308.751 84.4656 310.022 84.1812L321.96 97.4062C321.561 98.1397 321.349 98.9516 321.34 99.7769C321.34 100.835 321.671 101.869 322.292 102.748C322.912 103.628 323.794 104.314 324.827 104.718C325.859 105.123 326.994 105.229 328.09 105.023C329.186 104.816 330.192 104.307 330.982 103.559C331.772 102.811 332.31 101.858 332.528 100.82C332.746 99.7828 332.634 98.7073 332.207 97.73C331.779 96.7526 331.055 95.9172 330.126 95.3295C329.197 94.7418 328.105 94.4281 326.988 94.4281C326.411 94.436 325.839 94.5285 325.292 94.7024L313.602 81.7125C314.112 80.9479 314.41 80.0737 314.468 79.171C314.526 78.2683 314.342 77.3663 313.933 76.5488C313.525 75.7313 312.905 75.0248 312.131 74.4948C311.357 73.9649 310.454 73.6286 309.507 73.5174C308.559 73.4061 307.597 73.5234 306.71 73.8583C305.822 74.1932 305.039 74.735 304.432 75.4333C303.825 76.1315 303.414 76.9637 303.238 77.8525C303.061 78.7413 303.125 79.658 303.422 80.5173L292.436 89.6083Z" fill="white"/>
<path d="M287.554 166.333L282.091 159.77C282.843 158.724 283.188 157.463 283.069 156.203C282.949 154.943 282.371 153.762 281.434 152.86C280.497 151.958 279.259 151.392 277.93 151.258C276.602 151.124 275.265 151.431 274.149 152.126C273.032 152.821 272.205 153.861 271.808 155.069C271.411 156.277 271.468 157.578 271.971 158.75C272.473 159.922 273.39 160.893 274.564 161.497C275.738 162.101 277.097 162.301 278.409 162.062L285.422 170.487H299.202V178.05C298 178.529 297.011 179.387 296.402 180.479C295.792 181.57 295.6 182.828 295.859 184.038C296.117 185.248 296.809 186.337 297.818 187.118C298.828 187.9 300.091 188.327 301.395 188.327C302.699 188.327 303.963 187.9 304.972 187.118C305.981 186.337 306.673 185.248 306.932 184.038C307.19 182.828 306.998 181.57 306.389 180.479C305.779 179.387 304.79 178.529 303.588 178.05V170.487H312.154L330.899 183.398L324.568 197.838H303.423C302.99 196.674 302.146 195.687 301.032 195.045C299.919 194.403 298.606 194.145 297.315 194.316C296.024 194.486 294.835 195.074 293.949 195.98C293.064 196.886 292.537 198.054 292.457 199.286C292.377 200.518 292.75 201.738 293.512 202.74C294.273 203.741 295.378 204.462 296.637 204.781C297.896 205.099 299.233 204.996 300.421 204.487C301.609 203.979 302.574 203.097 303.154 201.992H327.527L336.279 181.949L313.52 166.274L287.554 166.333Z" fill="white"/>
<path d="M312.485 111.063C312.497 110.86 312.497 110.658 312.485 110.455C312.494 109.233 312.066 108.044 311.27 107.081C310.474 106.119 309.357 105.441 308.101 105.157C306.846 104.873 305.526 105 304.357 105.518C303.187 106.035 302.237 106.913 301.662 108.007C301.087 109.101 300.921 110.348 301.19 111.543C301.459 112.739 302.147 113.813 303.144 114.59C304.14 115.367 305.385 115.802 306.675 115.823C307.966 115.844 309.226 115.451 310.25 114.707L333.837 125.169V132.438L315.961 132.321L305.947 142.215C305.418 142.053 304.867 141.968 304.312 141.96C303.201 141.983 302.121 142.317 301.209 142.918C300.296 143.52 299.592 144.363 299.183 145.342C298.775 146.321 298.68 147.393 298.912 148.423C299.144 149.452 299.691 150.394 300.486 151.131C301.281 151.867 302.287 152.365 303.379 152.562C304.472 152.759 305.601 152.646 306.626 152.238C307.651 151.83 308.526 151.145 309.141 150.268C309.756 149.391 310.085 148.362 310.085 147.309C310.079 146.462 309.86 145.629 309.443 144.879L317.926 136.474L333.94 136.572V151.58L328.189 157.458C326.989 156.901 325.623 156.754 324.323 157.044C323.023 157.334 321.869 158.041 321.058 159.047C320.247 160.052 319.829 161.292 319.876 162.556C319.923 163.82 320.431 165.03 321.314 165.979C322.198 166.928 323.401 167.558 324.719 167.761C326.038 167.963 327.39 167.727 328.545 167.092C329.7 166.456 330.586 165.461 331.053 164.276C331.52 163.091 331.539 161.789 331.106 160.593L338.327 153.304V122.505L312.485 111.063Z" fill="white"/>
<path d="M311.926 209.143C310.905 209.145 309.904 209.408 309.029 209.905C308.154 210.403 307.437 211.115 306.955 211.967C306.474 212.819 306.245 213.779 306.293 214.745C306.341 215.71 306.665 216.645 307.229 217.45L296.677 231.165H281.118V212.317C282.32 211.838 283.309 210.979 283.919 209.888C284.528 208.796 284.72 207.539 284.462 206.329C284.204 205.118 283.511 204.03 282.502 203.248C281.493 202.466 280.229 202.039 278.925 202.039C277.621 202.039 276.358 202.466 275.349 203.248C274.34 204.03 273.647 205.118 273.389 206.329C273.131 207.539 273.322 208.796 273.932 209.888C274.541 210.979 275.531 211.838 276.732 212.317V231.165H270.773L255.401 215.785L255.69 186.729H266.635C267.142 187.867 268.048 188.804 269.201 189.381C270.353 189.958 271.681 190.14 272.959 189.895C274.237 189.651 275.387 188.995 276.212 188.039C277.038 187.084 277.489 185.887 277.489 184.652C277.489 183.418 277.038 182.221 276.212 181.265C275.387 180.31 274.237 179.654 272.959 179.41C271.681 179.165 270.353 179.347 269.201 179.924C268.048 180.501 267.142 181.438 266.635 182.576H255.752L256.001 156.89C257.169 156.345 258.103 155.434 258.644 154.312C259.184 153.19 259.299 151.925 258.968 150.732C258.637 149.539 257.88 148.491 256.827 147.766C255.773 147.04 254.488 146.682 253.187 146.751C251.887 146.821 250.651 147.313 249.691 148.146C248.73 148.979 248.103 150.101 247.915 151.322C247.728 152.542 247.992 153.787 248.662 154.844C249.332 155.902 250.368 156.707 251.594 157.125L250.994 217.431L268.891 235.338H298.912L310.891 219.782C311.667 219.924 312.465 219.911 313.235 219.743C314.004 219.575 314.728 219.256 315.36 218.806C315.991 218.357 316.516 217.787 316.9 217.134C317.284 216.481 317.52 215.758 317.591 215.013C317.662 214.268 317.568 213.518 317.314 212.809C317.06 212.101 316.651 211.452 316.116 210.902C315.58 210.353 314.928 209.916 314.203 209.619C313.478 209.323 312.695 209.174 311.905 209.182L311.926 209.143Z" fill="white"/>
<path d="M251.015 65.8817V138.374H272.719C273.152 139.539 273.996 140.525 275.11 141.167C276.223 141.809 277.536 142.067 278.827 141.897C280.118 141.726 281.307 141.138 282.193 140.232C283.078 139.326 283.605 138.158 283.685 136.926C283.765 135.694 283.392 134.474 282.63 133.473C281.869 132.471 280.764 131.75 279.505 131.431C278.246 131.113 276.909 131.217 275.721 131.725C274.533 132.233 273.568 133.115 272.988 134.221H255.422V108.75H268.602C269.19 109.85 270.161 110.723 271.351 111.222C272.541 111.722 273.876 111.817 275.131 111.492C276.387 111.166 277.485 110.441 278.24 109.437C278.996 108.433 279.362 107.213 279.277 105.984C279.192 104.754 278.661 103.589 277.774 102.688C276.887 101.786 275.698 101.201 274.409 101.034C273.12 100.866 271.809 101.125 270.698 101.767C269.587 102.409 268.744 103.395 268.312 104.557H255.422V66.1168C256.521 65.7522 257.473 65.074 258.147 64.1757C258.821 63.2774 259.185 62.2033 259.188 61.1011C259.188 61.1011 259.188 60.9248 259.188 60.8464L277.809 54.6748L286.892 67.0377C286.879 67.24 286.879 67.4428 286.892 67.645C286.905 68.3183 287.052 68.9831 287.326 69.6043L276.981 79.4006C276.184 79.0036 275.296 78.7952 274.395 78.7932C273.278 78.7932 272.186 79.1069 271.257 79.6947C270.328 80.2824 269.604 81.1178 269.177 82.0951C268.749 83.0725 268.637 84.1479 268.855 85.1855C269.073 86.2231 269.611 87.1761 270.401 87.9242C271.191 88.6722 272.197 89.1816 273.293 89.388C274.389 89.5944 275.524 89.4885 276.557 89.0836C277.589 88.6788 278.471 87.9932 279.091 87.1136C279.712 86.234 280.043 85.1999 280.043 84.142C280.037 83.6576 279.96 83.1764 279.816 82.7117L291.319 72.6803C292.24 72.9006 293.205 72.8973 294.124 72.671C295.043 72.4446 295.888 72.0023 296.578 71.3852C297.269 70.768 297.785 69.9958 298.077 69.14C298.369 68.2842 298.429 67.3725 298.25 66.4891C298.072 65.6057 297.661 64.7792 297.056 64.0861C296.45 63.3929 295.67 62.8554 294.788 62.5234C293.905 62.1914 292.948 62.0755 292.006 62.1865C291.063 62.2975 290.165 62.6317 289.395 63.1583L279.505 49.6982L257.222 57.0846C256.618 56.5928 255.911 56.2279 255.147 56.0141C254.383 55.8004 253.58 55.7426 252.791 55.8447C252.002 55.9467 251.245 56.2062 250.569 56.6061C249.894 57.006 249.316 57.537 248.873 58.1642C248.431 58.7914 248.134 59.5004 248.002 60.2443C247.871 60.9882 247.907 61.7501 248.11 62.4796C248.312 63.2091 248.676 63.8896 249.177 64.4761C249.678 65.0625 250.304 65.5417 251.015 65.8817V65.8817Z" fill="white"/>
</svg>
