<svg width="37" height="35" viewBox="0 0 37 35" fill="none" xmlns="http://www.w3.org/2000/svg">
<path d="M34.6875 6.64881H25.4375V1.41804C25.4375 1.07122 25.3157 0.738606 25.0988 0.493366C24.882 0.248126 24.5879 0.110352 24.2812 0.110352H12.7188C12.4121 0.110352 12.118 0.248126 11.9012 0.493366C11.6843 0.738606 11.5625 1.07122 11.5625 1.41804V6.64881H2.3125C1.69919 6.64881 1.11099 6.92436 0.677316 7.41484C0.243638 7.90532 0 8.57055 0 9.2642L0 31.495C0 32.1886 0.243638 32.8538 0.677316 33.3443C1.11099 33.8348 1.69919 34.1104 2.3125 34.1104H34.6875C35.3008 34.1104 35.889 33.8348 36.3227 33.3443C36.7564 32.8538 37 32.1886 37 31.495V9.2642C37 8.57055 36.7564 7.90532 36.3227 7.41484C35.889 6.92436 35.3008 6.64881 34.6875 6.64881V6.64881ZM13.875 2.72574H23.125V6.64881H13.875V2.72574ZM2.3125 9.2642H34.6875V15.1488C34.6875 16.5361 34.2002 17.8666 33.3329 18.8475C32.4655 19.8285 31.2891 20.3796 30.0625 20.3796H21.9688V19.0719C21.9688 18.3782 21.7251 17.713 21.2914 17.2225C20.8578 16.7321 20.2696 16.4565 19.6562 16.4565H17.3438C16.7304 16.4565 16.1422 16.7321 15.7086 17.2225C15.2749 17.713 15.0312 18.3782 15.0312 19.0719V20.3796H6.9375C5.71087 20.3796 4.53449 19.8285 3.66713 18.8475C2.79978 17.8666 2.3125 16.5361 2.3125 15.1488V9.2642ZM19.6562 24.3027H17.3438V19.0719H19.6562V21.6873V24.3027ZM2.3125 31.495V20.9811C3.58235 22.2735 5.22918 22.9906 6.9375 22.995H15.0312V24.3027C15.0312 24.9963 15.2749 25.6615 15.7086 26.152C16.1422 26.6425 16.7304 26.918 17.3438 26.918H19.6562C20.2696 26.918 20.8578 26.6425 21.2914 26.152C21.7251 25.6615 21.9688 24.9963 21.9688 24.3027V22.995H30.0625C31.7717 22.9962 33.4203 22.2784 34.6875 20.9811V31.495H2.3125Z" fill="#4D4D4D"/>
</svg>
