<svg width="37" height="33" viewBox="0 0 37 33" fill="none" xmlns="http://www.w3.org/2000/svg">
<path fill-rule="evenodd" clip-rule="evenodd" d="M5.40948 18.3718C5.28471 18.3693 5.16067 18.3906 5.04464 18.4344C4.92861 18.4781 4.82292 18.5435 4.73376 18.6267C4.6446 18.7098 4.57377 18.8091 4.52541 18.9187C4.47706 19.0282 4.45215 19.1459 4.45215 19.2647C4.45215 19.3836 4.47706 19.5012 4.52541 19.6108C4.57377 19.7203 4.6446 19.8196 4.73376 19.9028C4.82292 19.9859 4.92861 20.0513 5.04464 20.0951C5.16067 20.1388 5.28471 20.1601 5.40948 20.1576H17.9039C18.0287 20.1601 18.1527 20.1388 18.2687 20.0951C18.3848 20.0513 18.4905 19.9859 18.5796 19.9028C18.6688 19.8196 18.7396 19.7203 18.788 19.6108C18.8363 19.5012 18.8612 19.3836 18.8612 19.2647C18.8612 19.1459 18.8363 19.0282 18.788 18.9187C18.7396 18.8091 18.6688 18.7098 18.5796 18.6267C18.4905 18.5435 18.3848 18.4781 18.2687 18.4344C18.1527 18.3906 18.0287 18.3693 17.9039 18.3718H5.40948Z" fill="black" fill-opacity="0.7"/>
<path fill-rule="evenodd" clip-rule="evenodd" d="M5.41018 11.9484C5.28535 11.9459 5.16124 11.9671 5.04513 12.0108C4.92902 12.0546 4.82324 12.1199 4.73401 12.2031C4.64478 12.2863 4.57388 12.3856 4.52548 12.4952C4.47708 12.6048 4.45215 12.7225 4.45215 12.8414C4.45215 12.9603 4.47708 13.078 4.52548 13.1876C4.57388 13.2972 4.64478 13.3965 4.73401 13.4797C4.82324 13.5628 4.92902 13.6282 5.04513 13.6719C5.16124 13.7156 5.28535 13.7369 5.41018 13.7343H17.9046C18.0294 13.7369 18.1535 13.7156 18.2696 13.6719C18.3858 13.6282 18.4915 13.5628 18.5808 13.4797C18.67 13.3965 18.7409 13.2972 18.7893 13.1876C18.8377 13.078 18.8626 12.9603 18.8626 12.8414C18.8626 12.7225 18.8377 12.6048 18.7893 12.4952C18.7409 12.3856 18.67 12.2863 18.5808 12.2031C18.4915 12.1199 18.3858 12.0546 18.2696 12.0108C18.1535 11.9671 18.0294 11.9459 17.9046 11.9484H5.41018Z" fill="black" fill-opacity="0.7"/>
<path fill-rule="evenodd" clip-rule="evenodd" d="M28.2718 11.4102C27.0101 11.4102 25.9883 12.4014 25.9883 13.5847C25.9883 14.7729 27.024 15.7591 28.2718 15.7591C29.5196 15.7591 30.5558 14.7729 30.5558 13.5847C30.5558 12.4014 29.5335 11.4102 28.2718 11.4102Z" fill="black" fill-opacity="0.7"/>
<path fill-rule="evenodd" clip-rule="evenodd" d="M28.2633 8.69629C25.4326 8.69629 23.1172 10.8981 23.1172 13.5937C23.1172 14.7881 23.5793 15.8831 24.3241 16.733V22.5596C24.3288 23.1811 25.1648 23.6363 25.73 23.3256L28.2765 21.9317L30.7965 23.3256C31.363 23.6502 32.2305 23.1892 32.2289 22.5596V16.7456C32.9817 15.8936 33.4226 14.7952 33.4226 13.5937C33.4226 10.8939 31.094 8.69629 28.2633 8.69629V8.69629ZM28.2633 10.4794C30.0847 10.4794 31.5525 11.8635 31.5525 13.5937C31.5637 15.3234 30.2361 16.6409 28.2633 16.7079C26.4508 16.6954 25.0418 15.3205 25.0138 13.5937C25.0138 11.8592 26.4418 10.4794 28.2633 10.4794ZM26.1942 18.0641C26.8293 18.3334 27.5224 18.5036 28.2633 18.5036C29.002 18.5036 29.7077 18.3315 30.3456 18.0641V21.0025L28.7673 20.1235C28.4837 19.9676 28.1091 19.9676 27.8256 20.1235L26.1942 21.0151V18.0641Z" fill="black" fill-opacity="0.7"/>
<path fill-rule="evenodd" clip-rule="evenodd" d="M2.94317 0C1.34116 0 0 1.73016 0 3.85003V29.1672C0 31.2756 1.33191 33 2.94317 33H34.0699C35.6812 33 37 31.2756 37 29.1672V3.85003C37 1.73016 35.6719 0 34.0699 0H2.94317V0ZM2.94317 2.45781H34.0699C34.6735 2.45781 35.1474 3.06802 35.1474 3.85003V29.1672C35.1474 29.9174 34.6643 30.5594 34.0699 30.5594H2.94317C2.34877 30.5594 1.86572 29.9174 1.86572 29.1672V3.85003C1.86572 3.06802 2.33954 2.45781 2.94317 2.45781V2.45781Z" fill="black" fill-opacity="0.7"/>
</svg>
