<svg width="60" height="58" viewBox="0 0 60 58" fill="none" xmlns="http://www.w3.org/2000/svg">
<rect x="1" y="1.42822" width="58" height="55.1429" stroke="white" stroke-width="2"/>
<path d="M17.6662 12.3813H9.28516V16.5719H15.0471" stroke="white" stroke-width="2"/>
<path d="M9.28516 26.5243V21.2861H15.0471" stroke="white" stroke-width="2"/>
<path d="M24.2852 16.5713V11.8569H30.571C33.1901 11.8569 33.1901 16.5713 30.571 16.5713H24.2852Z" stroke="white" stroke-width="2"/>
<path d="M24.2852 26.5243V21.2861H31.0948L33.7139 26.0005" stroke="white" stroke-width="2"/>
<circle cx="28.477" cy="40.143" r="7.33344" stroke="white" stroke-width="2"/>
<circle cx="45.81" cy="19.1904" r="7.33344" stroke="white" stroke-width="2"/>
<path d="M18.6666 34.2767C17.4628 33.3561 15.9665 32.8105 14.3451 32.8105C10.3672 32.8105 7.14258 36.0938 7.14258 40.144C7.14258 44.1941 10.3672 47.4774 14.3451 47.4774C15.9666 47.4774 17.4628 46.9315 18.6666 46.0107" stroke="white" stroke-width="2"/>
<path d="M41.4287 48.4287V39L52.4289 47.9049" stroke="white" stroke-width="2"/>
<path d="M42.1426 33.2857L52.6196 41.6674V32.0518" stroke="white" stroke-width="2"/>
</svg>
