<svg width="37" height="40" viewBox="0 0 37 40" fill="none" xmlns="http://www.w3.org/2000/svg">
<path d="M32.5514 39.2089H4.44855C1.99545 39.2089 0 37.4957 0 35.3896V4.15817C0 2.05206 1.99545 0.338867 4.44855 0.338867H16.264C16.7451 0.338867 17.1347 0.673378 17.1347 1.08638C17.1347 1.49938 16.7451 1.83389 16.264 1.83389H4.44855C2.95591 1.83389 1.74133 2.87666 1.74133 4.15817V35.3896C1.74133 36.6711 2.95591 37.7143 4.44855 37.7143H32.552C34.0446 37.7143 35.2598 36.6715 35.2598 35.3896V4.15817C35.2598 2.87666 34.0452 1.83389 32.552 1.83389H20.736C20.2549 1.83389 19.8653 1.49938 19.8653 1.08638C19.8653 0.673378 20.2549 0.338867 20.736 0.338867H32.5514C35.0045 0.338867 37 2.05206 37 4.15817V35.3896C37 37.4957 35.0045 39.2089 32.5514 39.2089Z" fill="#5C5C5C"/>
<path d="M31.6571 10.8466H20.4761C19.9951 10.8466 19.6055 10.5121 19.6055 10.0991C19.6055 9.68607 19.9951 9.35156 20.4761 9.35156H31.6571C32.1381 9.35156 32.5278 9.68607 32.5278 10.0991C32.5278 10.5121 32.1381 10.8466 31.6571 10.8466Z" fill="#5C5C5C"/>
<path d="M31.6571 17.5707H20.4761C19.9951 17.5707 19.6055 17.2362 19.6055 16.8232C19.6055 16.4102 19.9951 16.0757 20.4761 16.0757H31.6571C32.1381 16.0757 32.5278 16.4102 32.5278 16.8232C32.5278 17.2362 32.1381 17.5707 31.6571 17.5707Z" fill="#5C5C5C"/>
<path d="M31.658 22.5131H5.3443C4.86326 22.5131 4.47363 22.1786 4.47363 21.7656C4.47363 21.3526 4.86326 21.0181 5.3443 21.0181H31.6574C32.1385 21.0181 32.5281 21.3526 32.5281 21.7656C32.5281 22.1786 32.139 22.5131 31.658 22.5131Z" fill="#5C5C5C"/>
<path d="M31.658 28.2333H5.3443C4.86326 28.2333 4.47363 27.8988 4.47363 27.4858C4.47363 27.0728 4.86326 26.7383 5.3443 26.7383H31.6574C32.1385 26.7383 32.5281 27.0728 32.5281 27.4858C32.5281 27.8988 32.139 28.2333 31.658 28.2333Z" fill="#5C5C5C"/>
<path d="M26.0672 33.6054H5.3443C4.86326 33.6054 4.47363 33.2709 4.47363 32.8579C4.47363 32.4449 4.86326 32.1104 5.3443 32.1104H26.0672C26.5483 32.1104 26.9379 32.4449 26.9379 32.8579C26.9379 33.2709 26.5483 33.6054 26.0672 33.6054Z" fill="#5C5C5C"/>
<path d="M13.8746 12.3478C14.5304 11.7638 14.9363 10.9724 14.9363 10.0992C14.9363 8.3108 13.2412 6.85596 11.1582 6.85596C9.0751 6.85596 7.38002 8.3108 7.38002 10.0992C7.38002 10.9724 7.78597 11.7638 8.44169 12.3478C6.10667 13.2439 4.47363 15.2533 4.47363 17.5874C4.47363 18.0004 4.86326 18.3349 5.3443 18.3349C5.82534 18.3349 6.21496 18.0004 6.21496 17.5874C6.21496 15.2467 8.43244 13.3429 11.1582 13.3429C13.8839 13.3429 16.1014 15.2472 16.1014 17.5874C16.1014 18.0004 16.491 18.3349 16.972 18.3349C17.4531 18.3349 17.8427 18.0004 17.8427 17.5874C17.8432 15.2533 16.2097 13.2439 13.8746 12.3478ZM9.12135 10.0992C9.12135 9.13539 10.035 8.35098 11.1582 8.35098C12.2813 8.35098 13.195 9.13539 13.195 10.0992C13.195 11.063 12.2813 11.8475 11.1582 11.8475C10.035 11.8475 9.12135 11.0635 9.12135 10.0992Z" fill="#4D4D4D"/>
</svg>
