<svg width="36" height="32" viewBox="0 0 36 32" fill="none" xmlns="http://www.w3.org/2000/svg">
<path d="M30.1735 4.91446H26.934V2.81741C26.936 2.44818 26.8672 2.08217 26.7315 1.74044C26.5957 1.39871 26.3958 1.088 26.1431 0.826163C25.8904 0.564331 25.59 0.356548 25.2591 0.214765C24.9282 0.0729815 24.5733 -6.02802e-06 24.2149 3.73404e-10H11.7851C11.0639 3.73404e-10 10.3723 0.295147 9.86242 0.820511C9.3525 1.34588 9.06603 2.05842 9.06603 2.8014V4.89845H5.8265C4.28185 4.90057 2.80105 5.5337 1.70881 6.65903C0.616577 7.78435 0.00205543 9.31001 0 10.9015V25.997C0.00205543 27.5884 0.616577 29.1141 1.70881 30.2394C2.80105 31.3647 4.28185 31.9979 5.8265 32H30.1735C31.7182 31.9979 33.199 31.3647 34.2912 30.2394C35.3834 29.1141 35.9979 27.5884 36 25.997V10.9175C35.9979 9.32601 35.3834 7.80036 34.2912 6.67503C33.199 5.54971 31.7182 4.91657 30.1735 4.91446ZM11.3966 2.81741C11.3956 2.7638 11.4048 2.71051 11.4238 2.66057C11.4428 2.61064 11.4711 2.56505 11.5072 2.5264C11.5432 2.48775 11.5863 2.4568 11.634 2.43532C11.6817 2.41383 11.733 2.40224 11.7851 2.4012H24.2149C24.3173 2.40325 24.415 2.44607 24.4874 2.52068C24.5598 2.5953 24.6014 2.6959 24.6034 2.8014V4.89845H11.3966V2.81741ZM2.3306 10.9175C2.3306 9.9622 2.69892 9.04607 3.35453 8.3706C4.01013 7.69513 4.89933 7.31566 5.8265 7.31566H30.1735C31.1007 7.31566 31.9899 7.69513 32.6455 8.3706C33.3011 9.04607 33.6694 9.9622 33.6694 10.9175V12.006C33.6673 13.3852 33.1347 14.7072 32.1881 15.6825C31.2416 16.6577 29.9584 17.2065 28.6198 17.2086H21.8843V15.8079C21.8843 15.0649 21.5979 14.3524 21.0879 13.827C20.578 13.3016 19.8864 13.0065 19.1653 13.0065H16.8347C16.1136 13.0065 15.422 13.3016 14.9121 13.827C14.4021 14.3524 14.1157 15.0649 14.1157 15.8079V17.2406H7.38023C6.04162 17.2385 4.75842 16.6897 3.81187 15.7145C2.86533 14.7393 2.33265 13.4172 2.3306 12.038V10.9175ZM19.5537 20.6103C19.5517 20.7158 19.5102 20.8164 19.4378 20.891C19.3653 20.9656 19.2677 21.0085 19.1653 21.0105H16.8347C16.7323 21.0085 16.6347 20.9656 16.5622 20.891C16.4898 20.8164 16.4483 20.7158 16.4463 20.6103V15.8079C16.4483 15.7024 16.4898 15.6018 16.5622 15.5272C16.6347 15.4526 16.7323 15.4098 16.8347 15.4077H19.1653C19.2677 15.4098 19.3653 15.4526 19.4378 15.5272C19.5102 15.6018 19.5517 15.7024 19.5537 15.8079V20.6103ZM30.1735 29.6148H5.8265C4.89933 29.6148 4.01013 29.2353 3.35453 28.5599C2.69892 27.8844 2.3306 26.9683 2.3306 26.013V17.6088C3.6948 18.9393 5.50173 19.6811 7.38023 19.6818H14.1157V20.6503C14.1157 21.3933 14.4021 22.1059 14.9121 22.6312C15.422 23.1566 16.1136 23.4517 16.8347 23.4517H19.1653C19.8864 23.4517 20.578 23.1566 21.0879 22.6312C21.5979 22.1059 21.8843 21.3933 21.8843 20.6503V19.6498H28.6198C30.494 19.6578 32.3004 18.9277 33.6694 17.6088V25.997C33.6714 26.4713 33.5825 26.9414 33.4078 27.3803C33.233 27.8191 32.9758 28.2181 32.651 28.5542C32.3262 28.8904 31.9401 29.1571 31.5149 29.3391C31.0898 29.5211 30.6339 29.6148 30.1735 29.6148Z" fill="black" fill-opacity="0.7"/>
</svg>
