<svg width="37" height="31" viewBox="0 0 37 31" fill="none" xmlns="http://www.w3.org/2000/svg">
<path d="M33.8761 0H3.1237C2.29554 0.000913456 1.50158 0.312799 0.915977 0.867237C0.330379 1.42168 0.000965878 2.17339 0 2.95749V27.0978C0.000965878 27.8819 0.330379 28.6336 0.915977 29.188C1.50158 29.7425 2.29554 30.0544 3.1237 30.0553H33.8761C34.7043 30.0544 35.4983 29.7425 36.0839 29.1881C36.6696 28.6337 36.999 27.8819 37 27.0978V2.95749C36.999 2.17336 36.6696 1.42162 36.0839 0.867181C35.4983 0.312739 34.7043 0.00087337 33.8761 0V0ZM3.12368 1.9412H33.8761C34.1607 1.94147 34.4336 2.04862 34.6349 2.23915C34.8361 2.42968 34.9494 2.68802 34.9497 2.95749V6.97317H2.05026V2.95749C2.05059 2.68804 2.16379 2.42972 2.36503 2.23919C2.56626 2.04867 2.83911 1.9415 3.1237 1.9412H3.12368ZM33.8761 28.1141H3.1237C2.83912 28.1138 2.56628 28.0066 2.36505 27.8161C2.16382 27.6255 2.05062 27.3672 2.0503 27.0978V8.91437H34.9497V27.0978C34.9494 27.3673 34.8362 27.6256 34.6349 27.8161C34.4336 28.0067 34.1607 28.1138 33.8761 28.1141V28.1141Z" fill="#5C5C5C"/>
<path d="M4.67845 5.38552C5.15077 5.38552 5.53366 5.023 5.53366 4.57582C5.53366 4.12863 5.15077 3.76611 4.67845 3.76611C4.20613 3.76611 3.82324 4.12863 3.82324 4.57582C3.82324 5.023 4.20613 5.38552 4.67845 5.38552Z" fill="#5C5C5C"/>
<path d="M7.93138 5.38552C8.4037 5.38552 8.78659 5.023 8.78659 4.57582C8.78659 4.12863 8.4037 3.76611 7.93138 3.76611C7.45906 3.76611 7.07617 4.12863 7.07617 4.57582C7.07617 5.023 7.45906 5.38552 7.93138 5.38552Z" fill="#5C5C5C"/>
<path d="M11.1892 5.38552C11.6615 5.38552 12.0444 5.023 12.0444 4.57582C12.0444 4.12863 11.6615 3.76611 11.1892 3.76611C10.7169 3.76611 10.334 4.12863 10.334 4.57582C10.334 5.023 10.7169 5.38552 11.1892 5.38552Z" fill="#5C5C5C"/>
<path d="M21.5649 11.7626C21.3149 11.6615 21.0328 11.6585 20.7805 11.7542C20.5282 11.85 20.3263 12.0366 20.2192 12.2731L14.8948 24.0523C14.8416 24.1695 14.8133 24.2955 14.8116 24.4231C14.8099 24.5507 14.8347 24.6773 14.8847 24.7958C14.9348 24.9143 15.009 25.0223 15.1031 25.1136C15.1972 25.2049 15.3095 25.2777 15.4334 25.3279C15.5573 25.3781 15.6904 25.4047 15.8252 25.4061C15.9599 25.4075 16.0936 25.3838 16.2187 25.3362C16.3438 25.2886 16.4577 25.2182 16.5539 25.1289C16.6502 25.0396 16.727 24.9333 16.7798 24.8159L22.1041 13.0367C22.1571 12.9195 22.1852 12.7936 22.1867 12.6662C22.1883 12.5387 22.1633 12.4122 22.1133 12.2939C22.0632 12.1756 21.989 12.0678 21.8949 11.9766C21.8008 11.8855 21.6887 11.8127 21.5649 11.7626V11.7626Z" fill="#5C5C5C"/>
<path d="M13.2447 14.6091C13.1496 14.5189 13.0366 14.4474 12.9122 14.3986C12.7879 14.3498 12.6546 14.3247 12.5199 14.3247C12.3853 14.3247 12.252 14.3498 12.1277 14.3986C12.0033 14.4474 11.8903 14.5189 11.7951 14.6091L7.63867 18.5444L11.7951 22.4797C11.8903 22.5698 12.0033 22.6413 12.1277 22.69C12.252 22.7388 12.3853 22.7639 12.5199 22.7639C12.6545 22.7639 12.7878 22.7388 12.9122 22.69C13.0366 22.6413 13.1496 22.5698 13.2447 22.4797C13.3399 22.3895 13.4154 22.2826 13.4669 22.1648C13.5185 22.0471 13.545 21.9209 13.545 21.7934C13.545 21.666 13.5185 21.5398 13.4669 21.422C13.4154 21.3043 13.3399 21.1973 13.2447 21.1072L10.5383 18.5444L13.2448 15.9816C13.34 15.8915 13.4155 15.7845 13.467 15.6667C13.5186 15.549 13.5451 15.4228 13.5451 15.2953C13.5451 15.1678 13.5186 15.0416 13.467 14.9239C13.4155 14.8061 13.34 14.6992 13.2447 14.6091V14.6091Z" fill="#5C5C5C"/>
<path d="M23.7551 14.6091C23.6599 14.6992 23.5844 14.8061 23.5328 14.9239C23.4813 15.0416 23.4548 15.1678 23.4548 15.2953C23.4548 15.4228 23.4813 15.549 23.5328 15.6667C23.5844 15.7845 23.6599 15.8914 23.7551 15.9815L26.4617 18.5443L23.7551 21.1072C23.6598 21.1972 23.5841 21.3042 23.5324 21.422C23.4808 21.5398 23.4542 21.6661 23.4541 21.7936C23.454 21.9212 23.4805 22.0475 23.532 22.1653C23.5835 22.2831 23.6591 22.3902 23.7543 22.4804C23.8496 22.5706 23.9627 22.6421 24.0871 22.6909C24.2116 22.7396 24.345 22.7647 24.4797 22.7646C24.6144 22.7646 24.7478 22.7394 24.8722 22.6905C24.9966 22.6416 25.1096 22.5699 25.2047 22.4796L29.3614 18.5443L25.2047 14.6091C25.1096 14.5189 24.9966 14.4474 24.8722 14.3986C24.7478 14.3498 24.6145 14.3247 24.4799 14.3247C24.3453 14.3247 24.212 14.3498 24.0876 14.3986C23.9633 14.4474 23.8503 14.5189 23.7551 14.6091V14.6091Z" fill="#4D4D4D"/>
</svg>
